# Blender v2.83.2 OBJ File: ''
# www.blender.org
v 0.000000 -1.000000 -1.000000
v 0.000000 1.000000 -1.000000
v 0.195090 -1.000000 -0.980785
v 0.195090 1.000000 -0.980785
v 0.382683 -1.000000 -0.923880
v 0.382683 1.000000 -0.923880
v 0.555570 -1.000000 -0.831470
v 0.555570 1.000000 -0.831470
v 0.707107 -1.000000 -0.707107
v 0.707107 1.000000 -0.707107
v 0.831470 -1.000000 -0.555570
v 0.831470 1.000000 -0.555570
v 0.923880 -1.000000 -0.382683
v 0.923880 1.000000 -0.382683
v 0.980785 -1.000000 -0.195090
v 0.980785 1.000000 -0.195090
v 1.000000 -1.000000 -0.000000
v 1.000000 1.000000 -0.000000
v 0.980785 -1.000000 0.195090
v 0.980785 1.000000 0.195090
v 0.923880 -1.000000 0.382683
v 0.923880 1.000000 0.382683
v 0.831470 -1.000000 0.555570
v 0.831470 1.000000 0.555570
v 0.707107 -1.000000 0.707107
v 0.707107 1.000000 0.707107
v 0.555570 -1.000000 0.831470
v 0.555570 1.000000 0.831470
v 0.382683 -1.000000 0.923880
v 0.382683 1.000000 0.923880
v 0.195090 -1.000000 0.980785
v 0.195090 1.000000 0.980785
v -0.000000 -1.000000 1.000000
v -0.000000 1.000000 1.000000
v -0.195091 -1.000000 0.980785
v -0.195091 1.000000 0.980785
v -0.382684 -1.000000 0.923879
v -0.382684 1.000000 0.923879
v -0.555571 -1.000000 0.831469
v -0.555571 1.000000 0.831469
v -0.707107 -1.000000 0.707106
v -0.707107 1.000000 0.707106
v -0.831470 -1.000000 0.555570
v -0.831470 1.000000 0.555570
v -0.923880 -1.000000 0.382683
v -0.923880 1.000000 0.382683
v -0.980785 -1.000000 0.195089
v -0.980785 1.000000 0.195089
v -1.000000 -1.000000 -0.000001
v -1.000000 1.000000 -0.000001
v -0.980785 -1.000000 -0.195091
v -0.980785 1.000000 -0.195091
v -0.923879 -1.000000 -0.382684
v -0.923879 1.000000 -0.382684
v -0.831469 -1.000000 -0.555571
v -0.831469 1.000000 -0.555571
v -0.707106 -1.000000 -0.707108
v -0.707106 1.000000 -0.707108
v -0.555569 -1.000000 -0.831470
v -0.555569 1.000000 -0.831470
v -0.382682 -1.000000 -0.923880
v -0.382682 1.000000 -0.923880
v -0.195089 -1.000000 -0.980786
v -0.195089 1.000000 -0.980786
vt 0.028269 0.341844
vt 0.158156 0.028269
vt 0.471731 0.158156
vt 0.985388 0.296822
vt 0.796822 0.014612
vt 0.514611 0.203179
vt 0.341844 0.471731
vt 0.296822 0.485388
vt 0.250000 0.490000
vt 0.203179 0.485389
vt 0.158156 0.471731
vt 0.116663 0.449553
vt 0.080295 0.419706
vt 0.050447 0.383337
vt 0.014612 0.296822
vt 0.010000 0.250000
vt 0.014611 0.203179
vt 0.028269 0.158156
vt 0.050447 0.116663
vt 0.080294 0.080294
vt 0.116663 0.050447
vt 0.203178 0.014612
vt 0.250000 0.010000
vt 0.296822 0.014612
vt 0.341844 0.028269
vt 0.383337 0.050447
vt 0.419706 0.080294
vt 0.449553 0.116663
vt 0.485388 0.203178
vt 0.490000 0.250000
vt 0.485388 0.296822
vt 0.471731 0.341844
vt 0.449553 0.383337
vt 0.419706 0.419706
vt 0.383337 0.449553
vt 0.703179 0.485389
vt 0.750000 0.490000
vt 0.796822 0.485388
vt 0.841844 0.471731
vt 0.883337 0.449553
vt 0.919706 0.419706
vt 0.949553 0.383337
vt 0.971731 0.341844
vt 0.990000 0.250000
vt 0.985388 0.203178
vt 0.971731 0.158156
vt 0.949553 0.116663
vt 0.919706 0.080294
vt 0.883337 0.050447
vt 0.841844 0.028269
vt 0.750000 0.010000
vt 0.703178 0.014612
vt 0.658156 0.028269
vt 0.616663 0.050447
vt 0.580294 0.080294
vt 0.550447 0.116663
vt 0.528269 0.158156
vt 0.510000 0.250000
vt 0.514612 0.296822
vt 0.528269 0.341844
vt 0.550447 0.383337
vt 0.580295 0.419706
vt 0.616663 0.449553
vt 0.658156 0.471731
vt 1.000000 1.000000
vt 0.968750 0.500000
vt 1.000000 0.500000
vt 0.968750 1.000000
vt 0.937500 0.500000
vt 0.937500 1.000000
vt 0.906250 0.500000
vt 0.906250 1.000000
vt 0.875000 0.500000
vt 0.875000 1.000000
vt 0.843750 0.500000
vt 0.843750 1.000000
vt 0.812500 0.500000
vt 0.812500 1.000000
vt 0.781250 0.500000
vt 0.781250 1.000000
vt 0.750000 0.500000
vt 0.750000 1.000000
vt 0.718750 0.500000
vt 0.718750 1.000000
vt 0.687500 0.500000
vt 0.687500 1.000000
vt 0.656250 0.500000
vt 0.656250 1.000000
vt 0.625000 0.500000
vt 0.625000 1.000000
vt 0.593750 0.500000
vt 0.593750 1.000000
vt 0.562500 0.500000
vt 0.562500 1.000000
vt 0.531250 0.500000
vt 0.531250 1.000000
vt 0.500000 0.500000
vt 0.500000 1.000000
vt 0.468750 0.500000
vt 0.468750 1.000000
vt 0.437500 0.500000
vt 0.437500 1.000000
vt 0.406250 0.500000
vt 0.406250 1.000000
vt 0.375000 0.500000
vt 0.375000 1.000000
vt 0.343750 0.500000
vt 0.343750 1.000000
vt 0.312500 0.500000
vt 0.312500 1.000000
vt 0.281250 0.500000
vt 0.281250 1.000000
vt 0.250000 0.500000
vt 0.250000 1.000000
vt 0.218750 0.500000
vt 0.218750 1.000000
vt 0.187500 0.500000
vt 0.187500 1.000000
vt 0.156250 0.500000
vt 0.156250 1.000000
vt 0.125000 0.500000
vt 0.125000 1.000000
vt 0.093750 0.500000
vt 0.093750 1.000000
vt 0.062500 0.500000
vt 0.062500 1.000000
vt 0.031250 0.500000
vt 0.031250 1.000000
vt 0.000000 0.500000
vt 0.000000 1.000000
vn 0.0000 1.0000 0.0000
vn 0.0000 -1.0000 0.0000
vn 0.0000 0.0000 -1.0000
vn 0.1951 0.0000 -0.9808
vn 0.3827 0.0000 -0.9239
vn 0.5556 0.0000 -0.8315
vn 0.7071 0.0000 -0.7071
vn 0.8315 0.0000 -0.5556
vn 0.9239 0.0000 -0.3827
vn 0.9808 0.0000 -0.1951
vn 1.0000 0.0000 -0.0000
vn 0.9808 0.0000 0.1951
vn 0.9239 0.0000 0.3827
vn 0.8315 0.0000 0.5556
vn 0.7071 0.0000 0.7071
vn 0.5556 0.0000 0.8315
vn 0.3827 0.0000 0.9239
vn 0.1951 0.0000 0.9808
vn -0.0000 0.0000 1.0000
vn -0.1951 0.0000 0.9808
vn -0.3827 0.0000 0.9239
vn -0.5556 0.0000 0.8315
vn -0.7071 0.0000 0.7071
vn -0.8315 0.0000 0.5556
vn -0.9239 0.0000 0.3827
vn -0.9808 0.0000 0.1951
vn -1.0000 0.0000 -0.0000
vn -0.9808 0.0000 -0.1951
vn -0.9239 0.0000 -0.3827
vn -0.8315 0.0000 -0.5556
vn -0.7071 0.0000 -0.7071
vn -0.5556 0.0000 -0.8315
vn -0.3827 0.0000 -0.9239
vn -0.1951 0.0000 -0.9808
s off
f 54/1/1 38/2/1 22/3/1
f 15/4/2 31/5/2 47/6/2
f 6/7/1 4/8/1 2/9/1
f 2/9/1 64/10/1 6/7/1
f 64/10/1 62/11/1 6/7/1
f 62/11/1 60/12/1 58/13/1
f 58/13/1 56/14/1 54/1/1
f 54/1/1 52/15/1 50/16/1
f 50/16/1 48/17/1 54/1/1
f 48/17/1 46/18/1 54/1/1
f 46/18/1 44/19/1 38/2/1
f 44/19/1 42/20/1 38/2/1
f 42/20/1 40/21/1 38/2/1
f 38/2/1 36/22/1 34/23/1
f 34/23/1 32/24/1 30/25/1
f 30/25/1 28/26/1 26/27/1
f 26/27/1 24/28/1 22/3/1
f 22/3/1 20/29/1 18/30/1
f 18/30/1 16/31/1 22/3/1
f 16/31/1 14/32/1 22/3/1
f 14/32/1 12/33/1 10/34/1
f 10/34/1 8/35/1 6/7/1
f 62/11/1 58/13/1 6/7/1
f 58/13/1 54/1/1 6/7/1
f 38/2/1 34/23/1 22/3/1
f 34/23/1 30/25/1 22/3/1
f 30/25/1 26/27/1 22/3/1
f 14/32/1 10/34/1 22/3/1
f 10/34/1 6/7/1 22/3/1
f 54/1/1 46/18/1 38/2/1
f 6/7/1 54/1/1 22/3/1
f 63/36/2 1/37/2 3/38/2
f 3/38/2 5/39/2 7/40/2
f 7/40/2 9/41/2 11/42/2
f 11/42/2 13/43/2 7/40/2
f 13/43/2 15/4/2 7/40/2
f 15/4/2 17/44/2 19/45/2
f 19/45/2 21/46/2 15/4/2
f 21/46/2 23/47/2 15/4/2
f 23/47/2 25/48/2 31/5/2
f 25/48/2 27/49/2 31/5/2
f 27/49/2 29/50/2 31/5/2
f 31/5/2 33/51/2 35/52/2
f 35/52/2 37/53/2 39/54/2
f 39/54/2 41/55/2 43/56/2
f 43/56/2 45/57/2 47/6/2
f 47/6/2 49/58/2 51/59/2
f 51/59/2 53/60/2 55/61/2
f 55/61/2 57/62/2 63/36/2
f 57/62/2 59/63/2 63/36/2
f 59/63/2 61/64/2 63/36/2
f 63/36/2 3/38/2 7/40/2
f 31/5/2 35/52/2 47/6/2
f 35/52/2 39/54/2 47/6/2
f 39/54/2 43/56/2 47/6/2
f 47/6/2 51/59/2 63/36/2
f 51/59/2 55/61/2 63/36/2
f 63/36/2 7/40/2 15/4/2
f 15/4/2 23/47/2 31/5/2
f 63/36/2 15/4/2 47/6/2
s 1
f 2/65/3 3/66/4 1/67/3
f 4/68/4 5/69/5 3/66/4
f 6/70/5 7/71/6 5/69/5
f 8/72/6 9/73/7 7/71/6
f 10/74/7 11/75/8 9/73/7
f 12/76/8 13/77/9 11/75/8
f 14/78/9 15/79/10 13/77/9
f 16/80/10 17/81/11 15/79/10
f 18/82/11 19/83/12 17/81/11
f 20/84/12 21/85/13 19/83/12
f 22/86/13 23/87/14 21/85/13
f 24/88/14 25/89/15 23/87/14
f 26/90/15 27/91/16 25/89/15
f 28/92/16 29/93/17 27/91/16
f 30/94/17 31/95/18 29/93/17
f 32/96/18 33/97/19 31/95/18
f 34/98/19 35/99/20 33/97/19
f 36/100/20 37/101/21 35/99/20
f 38/102/21 39/103/22 37/101/21
f 40/104/22 41/105/23 39/103/22
f 42/106/23 43/107/24 41/105/23
f 44/108/24 45/109/25 43/107/24
f 46/110/25 47/111/26 45/109/25
f 48/112/26 49/113/27 47/111/26
f 50/114/27 51/115/28 49/113/27
f 52/116/28 53/117/29 51/115/28
f 54/118/29 55/119/30 53/117/29
f 56/120/30 57/121/31 55/119/30
f 58/122/31 59/123/32 57/121/31
f 60/124/32 61/125/33 59/123/32
f 62/126/33 63/127/34 61/125/33
f 64/128/34 1/129/3 63/127/34
f 2/65/3 4/68/4 3/66/4
f 4/68/4 6/70/5 5/69/5
f 6/70/5 8/72/6 7/71/6
f 8/72/6 10/74/7 9/73/7
f 10/74/7 12/76/8 11/75/8
f 12/76/8 14/78/9 13/77/9
f 14/78/9 16/80/10 15/79/10
f 16/80/10 18/82/11 17/81/11
f 18/82/11 20/84/12 19/83/12
f 20/84/12 22/86/13 21/85/13
f 22/86/13 24/88/14 23/87/14
f 24/88/14 26/90/15 25/89/15
f 26/90/15 28/92/16 27/91/16
f 28/92/16 30/94/17 29/93/17
f 30/94/17 32/96/18 31/95/18
f 32/96/18 34/98/19 33/97/19
f 34/98/19 36/100/20 35/99/20
f 36/100/20 38/102/21 37/101/21
f 38/102/21 40/104/22 39/103/22
f 40/104/22 42/106/23 41/105/23
f 42/106/23 44/108/24 43/107/24
f 44/108/24 46/110/25 45/109/25
f 46/110/25 48/112/26 47/111/26
f 48/112/26 50/114/27 49/113/27
f 50/114/27 52/116/28 51/115/28
f 52/116/28 54/118/29 53/117/29
f 54/118/29 56/120/30 55/119/30
f 56/120/30 58/122/31 57/121/31
f 58/122/31 60/124/32 59/123/32
f 60/124/32 62/126/33 61/125/33
f 62/126/33 64/128/34 63/127/34
f 64/128/34 2/130/3 1/129/3
